<svg xmlns="http://www.w3.org/2000/svg" width="256" height="256" viewBox="0 0 256 256">
  <defs>
    <linearGradient id="bg" x1="36" y1="28" x2="220" y2="228" gradientUnits="userSpaceOnUse">
      <stop offset="0" stop-color="#22c55e"/>
      <stop offset="0.52" stop-color="#0ea5e9"/>
      <stop offset="1" stop-color="#4f46e5"/>
    </linearGradient>
    <linearGradient id="panel" x1="68" y1="72" x2="188" y2="186" gradientUnits="userSpaceOnUse">
      <stop offset="0" stop-color="#ffffff"/>
      <stop offset="1" stop-color="#dbeafe"/>
    </linearGradient>
    <filter id="shadow" x="-20%" y="-20%" width="140%" height="150%">
      <feDropShadow dx="0" dy="10" stdDeviation="12" flood-color="#0f172a" flood-opacity="0.28"/>
    </filter>
  </defs>

  <rect x="20" y="20" width="216" height="216" rx="48" fill="url(#bg)"/>

  <g filter="url(#shadow)">
    <rect x="56" y="62" width="144" height="126" rx="22" fill="url(#panel)"/>
    <path d="M56 88c0-14.36 11.64-26 26-26h92c14.36 0 26 11.64 26 26v16H56V88z" fill="#172554" opacity="0.92"/>
    <circle cx="80" cy="83" r="6" fill="#fb7185"/>
    <circle cx="100" cy="83" r="6" fill="#fbbf24"/>
    <circle cx="120" cy="83" r="6" fill="#34d399"/>
  </g>

  <path
    d="M73 128c13.5 0 19.3 14 25.9 30.6 2.3 5.8 10.5 5.8 12.8 0L128 117l16.3 41.6c2.3 5.8 10.5 5.8 12.8 0C163.7 142 169.5 128 183 128"
    fill="none"
    stroke="#0f172a"
    stroke-width="15"
    stroke-linecap="round"
    stroke-linejoin="round"/>

  <g fill="none" stroke="#ffffff" stroke-width="11" stroke-linecap="round" stroke-linejoin="round">
    <path d="M82 202h92"/>
    <path d="M128 188v14"/>
  </g>
</svg>
